<svg xmlns="http://www.w3.org/2000/svg" viewBox="0 0 508.78 57.6"><title>Asset 1</title><g id="Layer_2" data-name="Layer 2"><g id="Layer_1-2" data-name="Layer 1"><path d="M0,48V9.6H9.6V48ZM9.6,9.6V0h19.2V9.6Zm0,48V48h19.2v9.6Zm19.2-38.39V9.6h9.6v9.61Zm0,28.79V38.4h9.6V48Z"/><path d="M48,48V19.21h9.6V48Zm9.6-28.79V9.6h19.2v9.61Zm0,38.39V48h19.2v9.6ZM76.79,48V19.21h9.6V48Z"/><path d="M96,57.6V28.8h28.79V9.6h9.6v48ZM124.79,48V38.4H105.6V48Z"/><path d="M144,57.6V9.6h38.39V38.4H153.6V48h28.79v9.6ZM172.79,28.8v-9.6H153.6v9.6Z"/><path d="M192,57.6V9.6h38.39v9.61H201.6V57.6Z"/><path d="M259.2,57.6V0h9.6V57.6Z"/><path d="M278.39,57.6V9.6H288v9.61h9.6v9.6H288V57.6Zm28.79,0V38.4h-9.6V28.8h9.6V9.6h9.6v48Z"/><path d="M326.39,57.6V9.6H336V28.8h28.79v9.6H336V48h28.79v9.6Z"/><path d="M374.39,57.6V9.6h38.39v9.61H384V57.6Z"/><path d="M422.39,48V19.21H432V48ZM432,19.21V9.6h19.2v9.61Zm0,38.39V48h19.2v9.6Zm19.2-9.6V19.21h9.6V48Z"/><path d="M470.39,57.6V48h28.79V38.4H470.39V9.6h38.39v9.61H480v9.6h28.79V57.6Z"/></g></g></svg>