<svg xmlns="http://www.w3.org/2000/svg" viewBox="0 0 635.98 72"><title>logo</title><g id="Layer_2" data-name="Layer 2"><g id="Layer_1-2" data-name="Layer 1"><path d="M0,60V12H12V60ZM12,12V0H36V12Zm0,60V60H36V72ZM36,24V12H48V24Zm0,36V48H48V60Z"/><path d="M60,60V24H72V60ZM72,24V12H96V24Zm0,48V60H96V72ZM96,60V24h12V60Z"/><path d="M120,72V36h36V12h12V72Zm36-12V48H132V60Z"/><path d="M180,72V12h48V48H192V60h36V72Zm36-36V24H192V36Z"/><path d="M240,72V12h48V24H252V72Z"/><path d="M324,72V0h12V72Z"/><path d="M348,72V12h12V24h12V36H360V72Zm36,0V48H372V36h12V12h12V72Z"/><path d="M408,72V12h12V36h36V48H420V60h36V72Z"/><path d="M468,72V12h48V24H480V72Z"/><path d="M528,60V24h12V60Zm12-36V12h24V24Zm0,48V60h24V72Zm24-12V24h12V60Z"/><path d="M588,72V60h36V48H588V12h48V24H600V36h36V72Z"/></g></g></svg>