<svg xmlns="http://www.w3.org/2000/svg" viewBox="0 0 304.97 51.55"><g id="Layer_2" data-name="Layer 2"><g id="Layer_1-2" data-name="Layer 1"><path d="M83.88,13.87a9.68,9.68,0,0,0-2.18.47,14.36,14.36,0,0,0-2.14.93,6.31,6.31,0,0,0-2.3,2A13.83,13.83,0,0,0,76,19.92Q74.07,25.26,70,37T61.66,61.51h-7.1L41.42,24.45,29.56,61.51H22.46q-5.87-17.09-9-26.31T8.19,19.71a7.55,7.55,0,0,0-1.51-2.76A13.23,13.23,0,0,0,4.5,15.21a7,7,0,0,0-2-.93A17.45,17.45,0,0,0,0,13.8V11.06H26.61v2.67q-2.35.28-3.51.54a11.38,11.38,0,0,0-1.82.54,1.45,1.45,0,0,0-.77.6,1.41,1.41,0,0,0-.14.56,3.61,3.61,0,0,0,.12.95q.12.46.26,1.05.84,2.74,3.41,10.39t6.33,19L41.86,11.06h7.46L62.45,48.53q2.92-9,4.66-14.76T70,24q.7-2.5,1.13-4.18a12.29,12.29,0,0,0,.42-2.92,1.56,1.56,0,0,0-.69-1.27,6.3,6.3,0,0,0-1.84-.91,14.22,14.22,0,0,0-2.54-.51Q65,14,63.81,13.87V11.06H83.88Z" transform="translate(0 -10.35)"/><path d="M111.11,29.91a17.28,17.28,0,0,1,4.1,5.71,18.33,18.33,0,0,1,1.51,7.63,20.67,20.67,0,0,1-1.28,7.26,16.81,16.81,0,0,1-3.69,5.93,18.07,18.07,0,0,1-6,4,20.93,20.93,0,0,1-8.15,1.44,20.63,20.63,0,0,1-7.21-1.26,17.81,17.81,0,0,1-6-3.64,17,17,0,0,1-4.06-5.68,18,18,0,0,1-1.5-7.46,19.85,19.85,0,0,1,1.46-7.76,17.86,17.86,0,0,1,4-6,17.5,17.5,0,0,1,6-3.75,21.64,21.64,0,0,1,14.77,0A18.08,18.08,0,0,1,111.11,29.91Zm-6.32,25a18.62,18.62,0,0,0,1.6-5.08,37.69,37.69,0,0,0,.49-6.41,39.75,39.75,0,0,0-.43-5.9A18.85,18.85,0,0,0,105,32.4a9.69,9.69,0,0,0-2.81-3.6,6.9,6.9,0,0,0-4.36-1.36A7.33,7.33,0,0,0,91,31.68q-2.31,4.23-2.31,11.94a36.18,36.18,0,0,0,.5,6.19,18.34,18.34,0,0,0,1.59,5.08,9.2,9.2,0,0,0,2.81,3.41,7,7,0,0,0,4.18,1.22A7.07,7.07,0,0,0,102,58.28,8.59,8.59,0,0,0,104.78,54.91Z" transform="translate(0 -10.35)"/><path d="M156.47,60.94h-13.4q-3.47-5.32-5.77-8.47t-5.72-7.28h-1.35V55.8a3.12,3.12,0,0,0,.33,1.5,2.54,2.54,0,0,0,1.27,1,8.59,8.59,0,0,0,1.46.41A17,17,0,0,0,135,59v1.92H116.38V59l1.88-.21a7.15,7.15,0,0,0,1.66-.33,2.39,2.39,0,0,0,1.26-1,3.27,3.27,0,0,0,.32-1.54V31.31a3.54,3.54,0,0,0-.27-1.48,2.37,2.37,0,0,0-1.3-1,10.73,10.73,0,0,0-1.86-.54q-1.07-.22-1.69-.32V26H136q6.57,0,10,2.06a6.78,6.78,0,0,1,3.41,6.21,8.23,8.23,0,0,1-2.1,5.89,14.06,14.06,0,0,1-6.41,3.48l3.9,5q2.23,2.85,4.64,5.83.76,1,2.08,2.35a6.07,6.07,0,0,0,2.33,1.71,9.68,9.68,0,0,0,1.44.29q.87.12,1.24.15ZM139.71,35q0-3.49-2-5.11a8.55,8.55,0,0,0-5.57-1.61h-1.94V42.88h1.87A7.82,7.82,0,0,0,137.72,41Q139.71,39.09,139.71,35Z" transform="translate(0 -10.35)"/><path d="M184.24,29.62a15.86,15.86,0,0,1,5.17,5.57,17.1,17.1,0,0,1,2,8.53,16.1,16.1,0,0,1-1.76,7.71A15.57,15.57,0,0,1,185,56.81a21,21,0,0,1-6.71,3.11,29.8,29.8,0,0,1-7.86,1h-17.6V59q.79,0,2-.15a6.29,6.29,0,0,0,1.58-.29,2.37,2.37,0,0,0,1.23-1,3.11,3.11,0,0,0,.34-1.51V31.31a3.5,3.5,0,0,0-.32-1.51,2.38,2.38,0,0,0-1.25-1.1,7.34,7.34,0,0,0-2-.57q-1-.15-1.61-.2V26h18.58a29.17,29.17,0,0,1,6.37.76A19.78,19.78,0,0,1,184.24,29.62Zm-5,25A14.45,14.45,0,0,0,181,50a31.63,31.63,0,0,0,.55-6.26,25.25,25.25,0,0,0-.74-6.32,14.76,14.76,0,0,0-2.17-4.87,9.93,9.93,0,0,0-3.56-3.13,10.33,10.33,0,0,0-4.84-1.11q-.86,0-2,0l-1.64.06v26.5a4.77,4.77,0,0,0,.23,1.56,2.87,2.87,0,0,0,.8,1.19,3.91,3.91,0,0,0,1.39.8,6.78,6.78,0,0,0,2.15.28,10.25,10.25,0,0,0,4.77-1A8.16,8.16,0,0,0,179.22,54.64Z" transform="translate(0 -10.35)"/><path d="M245.91,60.94H218.73V58.2a33.77,33.77,0,0,0,4.46-.69q2.56-.54,2.56-1.35a4.31,4.31,0,0,0-.05-.63,4.41,4.41,0,0,0-.3-.95l-4.26-10.34H203.92q-.59,1.44-1.31,3.38t-1.24,3.45a18,18,0,0,0-.79,2.85,10.22,10.22,0,0,0-.12,1.23q0,1.13,1.7,1.92a18.52,18.52,0,0,0,5.67,1.14v2.74H187.37V58.2a18.88,18.88,0,0,0,2.62-.37,7,7,0,0,0,2.3-.83,8.93,8.93,0,0,0,2.44-2.07A11,11,0,0,0,196.41,52l8.17-19.79q4.1-9.91,9.05-21.87h7q6.89,16.95,10.79,26.79t6.64,16.31a8.11,8.11,0,0,0,1.16,1.92,7.49,7.49,0,0,0,2,1.63,8,8,0,0,0,2.29.84,16.36,16.36,0,0,0,2.36.35ZM219.7,40.76l-7.22-18-7.12,18Z" transform="translate(0 -10.35)"/><path d="M258.55,61.9a20.45,20.45,0,0,1-7.19-1.24A16.89,16.89,0,0,1,245.53,57a16.35,16.35,0,0,1-3.84-5.73,20.75,20.75,0,0,1,0-15,17.88,17.88,0,0,1,4-6,17.39,17.39,0,0,1,6-3.86,20.61,20.61,0,0,1,7.53-1.37,18.44,18.44,0,0,1,5.29.71,21.76,21.76,0,0,1,4,1.6L270.09,26h2.14l.22,12.75h-2.17q-1.84-5.85-4.42-8.58a8.32,8.32,0,0,0-6.29-2.74,7.7,7.7,0,0,0-7,4.08q-2.41,4.08-2.41,11.45a26.71,26.71,0,0,0,.82,7.11,14.6,14.6,0,0,0,2.15,4.74,8.72,8.72,0,0,0,3.37,2.75,10.35,10.35,0,0,0,4.3.88,10.49,10.49,0,0,0,6.13-1.87,17.43,17.43,0,0,0,4.9-5.66l2.12,1.28a21.28,21.28,0,0,1-2.41,3.88A14.54,14.54,0,0,1,268.39,59a16.21,16.21,0,0,1-4.29,2.12A18,18,0,0,1,258.55,61.9Z" transform="translate(0 -10.35)"/><path d="M305,36h-1.92a21.49,21.49,0,0,0-2.44-4.8q-1.68-2.56-3.11-2.76-.79-.1-1.94-.17t-2-.07h-1.15V55.6a3.61,3.61,0,0,0,.32,1.56A2.27,2.27,0,0,0,294,58.24a11.08,11.08,0,0,0,1.76.46q1.2.23,2,.33v1.92H278.32V59l2-.21a7.15,7.15,0,0,0,1.76-.33,2.29,2.29,0,0,0,1.28-1.06,3.6,3.6,0,0,0,.32-1.58V28.21h-1.15q-.83,0-2,.07t-1.94.17q-1.42.2-3.11,2.76a21.45,21.45,0,0,0-2.44,4.8h-1.92V26H305Z" transform="translate(0 -10.35)"/></g></g></svg>
