<svg xmlns="http://www.w3.org/2000/svg" viewBox="0 0 374.38 172.8"><title>logo-2line</title><g id="Layer_2" data-name="Layer 2"><g id="Layer_1-2" data-name="Layer 1"><path d="M14.4,72V14.4h14.4V72Zm14.4-57.6V0H57.59V14.4Zm0,72V72H57.59V86.4ZM57.59,28.81V14.4H72V28.81Zm0,43.19V57.6H72V72Z"/><path d="M86.4,72V28.81h14.4V72Zm14.4-43.19V14.4h28.79V28.81Zm0,57.59V72h28.79V86.4ZM129.59,72V28.81H144V72Z"/><path d="M158.4,86.4V43.21h43.19V14.4H216v72ZM201.59,72V57.6H172.79V72Z"/><path d="M230.4,86.4v-72H288V57.6H244.79V72H288V86.4Zm43.19-43.19V28.81H244.79v14.4Z"/><path d="M302.4,86.4v-72H360V28.81H316.79V86.4Z"/><path d="M0,172.8V86.4H14.4v86.4Z"/><path d="M28.79,172.8v-72h14.4v14.41h14.4v14.4H43.19V172.8Zm43.19,0V144H57.59v-14.4H72V100.8h14.4v72Z"/><path d="M100.79,172.8v-72h14.4v28.81h43.19V144H115.19v14.4h43.19v14.4Z"/><path d="M172.79,172.8v-72h57.59v14.41H187.19V172.8Z"/><path d="M244.79,158.4V115.21h14.4V158.4Zm14.4-43.19V100.8H288v14.41Zm0,57.59V158.4H288v14.4ZM288,158.4V115.21h14.4V158.4Z"/><path d="M316.79,172.8V158.4H360V144H316.79V100.8h57.59v14.41H331.19v14.4h43.19V172.8Z"/></g></g></svg>