<svg xmlns="http://www.w3.org/2000/svg" viewBox="0 0 187.19 86.4"><title>Asset 3</title><g id="Layer_2" data-name="Layer 2"><g id="Layer_1-2" data-name="Layer 1"><path d="M7.2,36V7.2h7.2V36ZM14.4,7.2V0h14.4V7.2Zm0,36V36h14.4v7.2Zm14.4-28.79V7.2H36v7.21Zm0,21.59V28.8H36V36Z"/><path d="M43.2,36V14.41h7.2V36Zm7.2-21.59V7.2h14.4v7.21Zm0,28.79V36h14.4v7.2ZM64.79,36V14.41H72V36Z"/><path d="M79.2,43.2V21.6h21.59V7.2H108v36ZM100.79,36V28.8H86.4V36Z"/><path d="M115.2,43.2V7.2H144V28.8H122.4V36H144v7.2ZM136.79,21.6v-7.2H122.4v7.2Z"/><path d="M151.2,43.2V7.2H180v7.21H158.4V43.2Z"/><path d="M0,86.4V43.2H7.2V86.4Z"/><path d="M14.4,86.4v-36h7.2V57.6h7.2v7.2h-7.2V86.4ZM36,86.4V72h-7.2V64.8H36V50.4h7.2v36Z"/><path d="M50.4,86.4v-36h7.2V64.8H79.19V72H57.59v7.2H79.19v7.2Z"/><path d="M86.4,86.4v-36h28.79V57.6H93.59V86.4Z"/><path d="M122.4,79.2V57.6h7.2V79.2Zm7.2-21.59V50.4H144V57.6Zm0,28.79V79.2H144v7.2ZM144,79.2V57.6h7.2V79.2Z"/><path d="M158.4,86.4V79.2H180V72H158.4V50.4h28.79V57.6H165.59v7.2h21.59V86.4Z"/></g></g></svg>