<svg xmlns="http://www.w3.org/2000/svg" viewBox="0 0 311.98 144"><title>logo-2line</title><g id="Layer_2" data-name="Layer 2"><g id="Layer_1-2" data-name="Layer 1"><path d="M28,60V12H40V60ZM40,12V0H64V12Zm0,60V60H64V72ZM64,24V12H76V24Zm0,36V48H76V60Z" transform="translate(-16)"/><path d="M88,60V24h12V60Zm12-36V12h24V24Zm0,48V60h24V72Zm24-12V24h12V60Z" transform="translate(-16)"/><path d="M148,72V36h36V12h12V72Zm36-12V48H160V60Z" transform="translate(-16)"/><path d="M208,72V12h48V48H220V60h36V72Zm36-36V24H220V36Z" transform="translate(-16)"/><path d="M268,72V12h48V24H280V72Z" transform="translate(-16)"/><path d="M16,144V72H28v72Z" transform="translate(-16)"/><path d="M40,144V84H52V96H64v12H52v36Zm36,0V120H64V108H76V84H88v60Z" transform="translate(-16)"/><path d="M100,144V84h12v24h36v12H112v12h36v12Z" transform="translate(-16)"/><path d="M160,144V84h48V96H172v48Z" transform="translate(-16)"/><path d="M220,132V96h12v36Zm12-36V84h24V96Zm0,48V132h24v12Zm24-12V96h12v36Z" transform="translate(-16)"/><path d="M280,144V132h36V120H280V84h48V96H292v12h36v36Z" transform="translate(-16)"/></g></g></svg>