<svg xmlns="http://www.w3.org/2000/svg" viewBox="0 0 763.17 86.4"> <title>logo</title> <g id="Layer_2"> <g id="Layer_1-2"> <path d="M0,72V14.4H14.4V72ZM14.4,14.4V0H43.19V14.4Zm0,72V72H43.19V86.4ZM43.19,28.81V14.4h14.4V28.81Zm0,43.19V57.6h14.4V72Z"></path> <path d="M72,72V28.81H86.4V72ZM86.4,28.81V14.4h28.79V28.81Zm0,57.59V72h28.79V86.4ZM115.19,72V28.81h14.4V72Z"></path> <path d="M144,86.4V43.21h43.19V14.4h14.4v72ZM187.19,72V57.6H158.4V72Z"></path> <path d="M216,86.4v-72h57.59V57.6H230.4V72h43.19V86.4Zm43.19-43.19V28.81H230.4v14.4Z"></path> <path d="M288,86.4v-72h57.59V28.81H302.4V86.4Z"></path> <path d="M388.79,86.4V0h14.4V86.4Z"></path> <path d="M417.59,86.4v-72H432V28.81h14.4v14.4H432V86.4Zm43.19,0V57.6h-14.4V43.21h14.4V14.4h14.4v72Z"></path> <path d="M489.59,86.4v-72H504V43.21h43.19V57.6H504V72h43.19V86.4Z"></path> <path d="M561.59,86.4v-72h57.59V28.81H576V86.4Z"></path> <path d="M633.59,72V28.81H648V72ZM648,28.81V14.4h28.79V28.81Zm0,57.59V72h28.79V86.4ZM676.78,72V28.81h14.4V72Z"></path> <path d="M705.59,86.4V72h43.19V57.6H705.59V14.4h57.59V28.81H720v14.4h43.19V86.4Z"></path> </g> </g> </svg>